<svg xmlns="http://www.w3.org/2000/svg" width="256" height="256" viewBox="0 0 256 256" fill="none">
  <defs>
    <linearGradient id="g1" x1="0" y1="0" x2="1" y2="1">
      <stop offset="0%" stop-color="#10b981"/>
      <stop offset="100%" stop-color="#14b8a6"/>
    </linearGradient>
    <linearGradient id="g2" x1="0" y1="1" x2="1" y2="0">
      <stop offset="0%" stop-color="#059669"/>
      <stop offset="100%" stop-color="#0d9488"/>
    </linearGradient>
    <filter id="shadow" x="-50%" y="-50%" width="200%" height="200%">
      <feDropShadow dx="0" dy="6" stdDeviation="8" flood-color="#000000" flood-opacity="0.15"/>
    </filter>
  </defs>
  <rect width="256" height="256" rx="48" fill="#ffffff"/>
  <g filter="url(#shadow)">
    <!-- Center petal -->
    <path d="M128 44c18 20 30 46 30 68 0 24-14 40-30 40s-30-16-30-40c0-22 12-48 30-68z" fill="url(#g1)"/>
    <!-- Left inner petal -->
    <path d="M98 66c-12 16-18 34-18 50 0 20 12 36 30 36 12 0 20-6 24-14-4-24-16-48-36-72z" fill="url(#g2)"/>
    <!-- Right inner petal -->
    <path d="M158 66c12 16 18 34 18 50 0 20-12 36-30 36-12 0-20-6-24-14 4-24 16-48 36-72z" fill="url(#g2)"/>
    <!-- Left outer petal -->
    <path d="M66 92c-10 14-14 28-14 40 0 18 12 32 30 34 10 2 20-2 26-8-8-22-20-44-42-66z" fill="url(#g1)"/>
    <!-- Right outer petal -->
    <path d="M190 92c10 14 14 28 14 40 0 18-12 32-30 34-10 2-20-2-26-8 8-22 20-44 42-66z" fill="url(#g1)"/>
    <!-- Base leaves -->
    <path d="M52 160c20 14 44 22 76 22s56-8 76-22c-22-6-50-10-76-10s-54 4-76 10z" fill="#ecfdf5"/>
  </g>
  <!-- Subtle ring -->
  <circle cx="128" cy="128" r="110" stroke="#d1fae5" stroke-width="2" fill="none"/>
</svg>

